<svg width="60" height="58" viewBox="0 0 60 58" fill="none" xmlns="http://www.w3.org/2000/svg">
<path d="M20.0685 46.5657C20.0685 46.8049 19.7903 46.9962 19.4395 46.9962C19.0403 47.0321 18.7621 46.8407 18.7621 46.5657C18.7621 46.3265 19.0403 46.1352 19.3911 46.1352C19.754 46.0993 20.0685 46.2907 20.0685 46.5657ZM16.3065 46.0276C16.2218 46.2667 16.4637 46.5418 16.8266 46.6135C17.1411 46.7331 17.504 46.6135 17.5766 46.3744C17.6492 46.1352 17.4194 45.8602 17.0565 45.7525C16.7419 45.6688 16.3911 45.7884 16.3065 46.0276ZM21.6532 45.8243C21.3024 45.908 21.0605 46.1352 21.0968 46.4102C21.1331 46.6494 21.4476 46.8049 21.8105 46.7212C22.1613 46.6375 22.4032 46.4102 22.3669 46.1711C22.3306 45.9439 22.004 45.7884 21.6532 45.8243ZM29.6129 0C12.8347 0 0 12.5921 0 29.1783C0 42.4401 8.44355 53.7885 20.504 57.7826C22.0524 58.0576 22.5968 57.1129 22.5968 56.3356C22.5968 55.5942 22.5605 51.5045 22.5605 48.9932C22.5605 48.9932 14.0927 50.787 12.3145 45.4297C12.3145 45.4297 10.9355 41.9498 8.95161 41.0529C8.95161 41.0529 6.18145 39.1755 9.14516 39.2113C9.14516 39.2113 12.1573 39.4505 13.8145 42.2966C16.4637 46.9125 20.9032 45.5851 22.6331 44.7959C22.9113 42.8825 23.6976 41.5552 24.5685 40.7659C17.8065 40.0245 10.9839 39.0559 10.9839 27.552C10.9839 24.2634 11.9032 22.6132 13.8387 20.5085C13.5242 19.7312 12.496 16.5264 14.1532 12.3888C16.6815 11.6115 22.5 15.6176 22.5 15.6176C24.9194 14.9479 27.5202 14.6011 30.0968 14.6011C32.6734 14.6011 35.2742 14.9479 37.6936 15.6176C37.6936 15.6176 43.5121 11.5996 46.0403 12.3888C47.6976 16.5384 46.6694 19.7312 46.3548 20.5085C48.2903 22.6251 49.4758 24.2754 49.4758 27.552C49.4758 39.0917 42.3508 40.0125 35.5887 40.7659C36.7016 41.7106 37.6452 43.5044 37.6452 46.3146C37.6452 50.3445 37.6089 55.3311 37.6089 56.3117C37.6089 57.089 38.1653 58.0337 39.7016 57.7587C51.7984 53.7885 60 42.4401 60 29.1783C60 12.5921 46.3911 0 29.6129 0ZM11.7581 41.2442C11.6008 41.3638 11.6371 41.6389 11.8427 41.8661C12.0363 42.0574 12.3145 42.1411 12.4718 41.9857C12.629 41.8661 12.5927 41.591 12.3871 41.3638C12.1935 41.1725 11.9153 41.0888 11.7581 41.2442ZM10.4516 40.2756C10.3669 40.4311 10.4879 40.6224 10.7298 40.742C10.9234 40.8616 11.1653 40.8257 11.25 40.6583C11.3347 40.5028 11.2137 40.3115 10.9718 40.1919C10.7298 40.1202 10.5363 40.156 10.4516 40.2756ZM14.371 44.5328C14.1774 44.6882 14.25 45.047 14.5282 45.2742C14.8065 45.5492 15.1573 45.5851 15.3145 45.3938C15.4718 45.2383 15.3992 44.8796 15.1573 44.6524C14.8911 44.3773 14.5282 44.3415 14.371 44.5328ZM12.9919 42.7749C12.7984 42.8945 12.7984 43.2054 12.9919 43.4805C13.1855 43.7555 13.5121 43.8751 13.6694 43.7555C13.8629 43.6 13.8629 43.2891 13.6694 43.0141C13.5 42.739 13.1855 42.6195 12.9919 42.7749Z" fill="white"/>
</svg>
