<svg width="56" height="56" viewBox="0 0 56 56" fill="none" xmlns="http://www.w3.org/2000/svg">
<g filter="url(#filter0_bi_120_46)">
<path d="M12.3442 55.1478H0.910923V18.3284H12.3442V55.1478ZM6.62142 13.3059C2.96542 13.3059 0 10.2777 0 6.62157C2.61681e-08 4.86542 0.697612 3.1812 1.93937 1.93941C3.18113 0.697628 4.86531 0 6.62142 0C8.37753 0 10.0617 0.697628 11.3035 1.93941C12.5452 3.1812 13.2428 4.86542 13.2428 6.62157C13.2428 10.2777 10.2762 13.3059 6.62142 13.3059ZM55.1354 55.1478H43.7267V37.2243C43.7267 32.9527 43.6406 27.4748 37.7824 27.4748C31.838 27.4748 30.9271 32.1157 30.9271 36.9166V55.1478H19.5061V18.3284H30.4716V23.3509H30.6316C32.158 20.4581 35.8867 17.4052 41.4494 17.4052C53.0206 17.4052 55.1478 25.0251 55.1478 34.9224V55.1478H55.1354Z" fill="white"/>
</g>
<defs>
<filter id="filter0_bi_120_46" x="-34.8157" y="-34.8157" width="124.779" height="124.779" filterUnits="userSpaceOnUse" color-interpolation-filters="sRGB">
<feFlood flood-opacity="0" result="BackgroundImageFix"/>
<feGaussianBlur in="BackgroundImageFix" stdDeviation="17.4079"/>
<feComposite in2="SourceAlpha" operator="in" result="effect1_backgroundBlur_120_46"/>
<feBlend mode="normal" in="SourceGraphic" in2="effect1_backgroundBlur_120_46" result="shape"/>
<feColorMatrix in="SourceAlpha" type="matrix" values="0 0 0 0 0 0 0 0 0 0 0 0 0 0 0 0 0 0 127 0" result="hardAlpha"/>
<feOffset dx="-17.4079" dy="17.4079"/>
<feGaussianBlur stdDeviation="8.70393"/>
<feComposite in2="hardAlpha" operator="arithmetic" k2="-1" k3="1"/>
<feColorMatrix type="matrix" values="0 0 0 0 1 0 0 0 0 1 0 0 0 0 1 0 0 0 0.15 0"/>
<feBlend mode="normal" in2="shape" result="effect2_innerShadow_120_46"/>
</filter>
</defs>
</svg>
