<svg width="57" height="57" viewBox="0 0 57 57" fill="none" xmlns="http://www.w3.org/2000/svg">
<g filter="url(#filter0_bi_122_87)">
<path d="M48.267 8.24935C42.9575 2.92719 35.8866 0 28.3722 0C12.8619 0 0.240765 12.6211 0.240765 28.1314C0.240765 33.0861 1.53329 37.9268 3.99162 42.1972L0 56.7697L14.9147 52.8542C19.0204 55.0971 23.6456 56.2755 28.3595 56.2755H28.3722C43.8698 56.2755 56.7697 43.6544 56.7697 28.1441C56.7697 20.6297 53.5764 13.5715 48.267 8.24935ZM28.3722 51.5363C24.1652 51.5363 20.0468 50.4085 16.4607 48.2796L15.6117 47.7728L6.76675 50.0917L9.12371 41.4622L8.56615 40.5752C6.22186 36.8496 4.9927 32.5539 4.9927 28.1314C4.9927 15.2442 15.485 4.75193 28.3849 4.75193C34.6321 4.75193 40.4991 7.18492 44.9089 11.6074C49.3187 16.0298 52.0305 21.8969 52.0178 28.1441C52.0178 41.044 41.2594 51.5363 28.3722 51.5363ZM41.1961 34.0238C40.4991 33.669 37.0397 31.971 36.3935 31.7429C35.7472 31.5021 35.2783 31.3881 34.8095 32.0977C34.3406 32.8073 32.9974 34.3786 32.5792 34.8602C32.1737 35.329 31.7556 35.3924 31.0586 35.0376C26.9276 32.9721 24.2158 31.3501 21.4914 26.6742C20.7691 25.4323 22.2137 25.521 23.5569 22.8346C23.785 22.3658 23.671 21.9603 23.4935 21.6054C23.3161 21.2506 21.9096 17.7912 21.3267 16.3847C20.7564 15.0161 20.1735 15.2062 19.7427 15.1808C19.3372 15.1555 18.8683 15.1555 18.3995 15.1555C17.9306 15.1555 17.1703 15.3329 16.524 16.0298C15.8778 16.7395 14.0657 18.4375 14.0657 21.8969C14.0657 25.3563 16.5874 28.7017 16.9295 29.1705C17.2844 29.6394 21.8842 36.7356 28.9424 39.7895C33.4029 41.7156 35.1516 41.8804 37.3819 41.5509C38.7377 41.3481 41.5382 39.8529 42.1211 38.2055C42.704 36.5582 42.704 35.1516 42.5266 34.8602C42.3619 34.5434 41.893 34.366 41.1961 34.0238Z" fill="white"/>
</g>
<defs>
<filter id="filter0_bi_122_87" x="-34.8157" y="-34.8157" width="126.401" height="126.401" filterUnits="userSpaceOnUse" color-interpolation-filters="sRGB">
<feFlood flood-opacity="0" result="BackgroundImageFix"/>
<feGaussianBlur in="BackgroundImageFix" stdDeviation="17.4079"/>
<feComposite in2="SourceAlpha" operator="in" result="effect1_backgroundBlur_122_87"/>
<feBlend mode="normal" in="SourceGraphic" in2="effect1_backgroundBlur_122_87" result="shape"/>
<feColorMatrix in="SourceAlpha" type="matrix" values="0 0 0 0 0 0 0 0 0 0 0 0 0 0 0 0 0 0 127 0" result="hardAlpha"/>
<feOffset dx="-17.4079" dy="17.4079"/>
<feGaussianBlur stdDeviation="8.70393"/>
<feComposite in2="hardAlpha" operator="arithmetic" k2="-1" k3="1"/>
<feColorMatrix type="matrix" values="0 0 0 0 1 0 0 0 0 1 0 0 0 0 1 0 0 0 0.15 0"/>
<feBlend mode="normal" in2="shape" result="effect2_innerShadow_122_87"/>
</filter>
</defs>
</svg>
